# xmcd
#
# Track frame offsets:
#	150
#	16373
#	30405
#	44319
#	59933
#	74146
#	89188
#	103157
#	118269
#	131521
#	145706
#	159801
#	174885
#	188485
#	201904
#	217454
#	232413
#	247937
#	262025
#	277701
#
# Disc length: 3911 seconds
# Revision: 0
# Processed by: cddbd v1.5.2PL0 Copyright (c) Steve Scherf et al.
# Submitted via: dBpowerAMP V12.0
#
DISCID=340f4514
DTITLE=Tammy Wynette - Sometimes When We Touch and Higher Ground
DYEAR=2017
DGENRE=Country
TTITLE0=Sometimes When We Touch
TTITLE1=You Can Lead A Heart To Love (But You Can't Make It Fall)
TTITLE2=Breaking Away
TTITLE3=Every Time You Touch Her (Think Of Me)
TTITLE4=Between Twnety Nine And Danger
TTITLE5=It's Only Over For You
TTITLE6=The Party Of The First Part
TTITLE7=It's Hard To Be A Dreamer (When I Used To Be The Dream)
TTITLE8=If It Ain't Love
TTITLE9=He Talks To Me
TTITLE10=Your Love
TTITLE11=Tempted
TTITLE12=Some Things Will Never Change
TTITLE13=Beneath A Painted Sky
TTITLE14=I Wasn't Meant To Live My Life Alone
TTITLE15=Higher Ground
TTITLE16=Talkin' To Myself Again
TTITLE17=A Slow Burning Fire
TTITLE18=There's No Heart So Strong
TTITLE19=All Through Throwing Good Love After Bad
EXTD=
EXTT0=
EXTT1=
EXTT2=
EXTT3=
EXTT4=
EXTT5=
EXTT6=
EXTT7=
EXTT8=
EXTT9=
EXTT10=
EXTT11=
EXTT12=
EXTT13=
EXTT14=
EXTT15=
EXTT16=
EXTT17=
EXTT18=
EXTT19=
PLAYORDER=
